# Rhino

mtllib simple_vase_open_low_res.mtl
usemtl diffuse_0_0_0_255
v 34.561172612918149 0 0
v 34.561172612918149 0 90
v 34.175152679856737 5.1510755257238872 0
v 34.175152679856737 5.1510755257238872 90
v 33.025715243529888 10.187084403254483 0
v 33.025715243529888 10.187084403254483 90
v 31.138539886147903 14.995531238629791 0
v 31.138539886147903 14.995531238629791 90
v 28.555780381680197 19.469002353272163 0
v 28.555780381680197 19.469002353272163 90
v 25.335133023619928 23.507567110579174 0
v 25.335133023619928 23.507567110579174 90
v 21.548538729385697 27.02101151221429 0
v 21.548538729385697 27.02101151221429 90
v 17.280586306459075 29.93085242660311 0
v 17.280586306459075 29.93085242660311 90
v 12.626613950471041 32.172089601501717 0
v 12.626613950471041 32.172089601501717 90
v 7.6905844172501387 33.694652978727106 0
v 7.6905844172501387 33.694652978727106 90
v 2.5827596875793888 34.464533591901954 0
v 2.5827596875793888 34.464533591901954 90
v -2.5827596875793888 34.464533591901954 0
v -2.5827596875793888 34.464533591901954 90
v -7.6905844172501387 33.694652978727106 0
v -7.6905844172501387 33.694652978727106 90
v -12.626613950471041 32.172089601501717 0
v -12.626613950471041 32.172089601501717 90
v -17.280586306459075 29.93085242660311 0
v -17.280586306459075 29.93085242660311 90
v -21.548538729385697 27.02101151221429 0
v -21.548538729385697 27.02101151221429 90
v -25.335133023619928 23.507567110579174 0
v -25.335133023619928 23.507567110579174 90
v -28.555780381680197 19.469002353272163 0
v -28.555780381680197 19.469002353272163 90
v -31.138539886147903 14.995531238629791 0
v -31.138539886147903 14.995531238629791 90
v -33.025715243529888 10.187084403254483 0
v -33.025715243529888 10.187084403254483 90
v -34.175152679856737 5.1510755257238872 0
v -34.175152679856737 5.1510755257238872 90
v -34.561172612918149 0 0
v -34.561172612918149 0 90
v -34.175152679856737 -5.1510755257238872 0
v -34.175152679856737 -5.1510755257238872 90
v -33.025715243529888 -10.187084403254483 0
v -33.025715243529888 -10.187084403254483 90
v -31.138539886147903 -14.995531238629791 0
v -31.138539886147903 -14.995531238629791 90
v -28.555780381680197 -19.469002353272163 0
v -28.555780381680197 -19.469002353272163 90
v -25.335133023619928 -23.507567110579174 0
v -25.335133023619928 -23.507567110579174 90
v -21.548538729385697 -27.02101151221429 0
v -21.548538729385697 -27.02101151221429 90
v -17.280586306459075 -29.93085242660311 0
v -17.280586306459075 -29.93085242660311 90
v -12.626613950471041 -32.172089601501717 0
v -12.626613950471041 -32.172089601501717 90
v -7.6905844172501387 -33.694652978727106 0
v -7.6905844172501387 -33.694652978727106 90
v -2.5827596875793888 -34.464533591901954 0
v -2.5827596875793888 -34.464533591901954 90
v 2.5827596875793888 -34.464533591901954 0
v 2.5827596875793888 -34.464533591901954 90
v 7.6905844172501387 -33.694652978727106 0
v 7.6905844172501387 -33.694652978727106 90
v 12.626613950471041 -32.172089601501717 0
v 12.626613950471041 -32.172089601501717 90
v 17.280586306459075 -29.93085242660311 0
v 17.280586306459075 -29.93085242660311 90
v 21.548538729385697 -27.02101151221429 0
v 21.548538729385697 -27.02101151221429 90
v 25.335133023619928 -23.507567110579174 0
v 25.335133023619928 -23.507567110579174 90
v 28.555780381680197 -19.469002353272163 0
v 28.555780381680197 -19.469002353272163 90
v 31.138539886147903 -14.995531238629791 0
v 31.138539886147903 -14.995531238629791 90
v 33.025715243529888 -10.187084403254483 0
v 33.025715243529888 -10.187084403254483 90
v 34.175152679856737 -5.1510755257238872 0
v 34.175152679856737 -5.1510755257238872 90
v 34.561172612918149 0 0
v 34.561172612918149 0 90
vt 0 0
vt 0 1
vt 0.02380952425301075 0
vt 0.02380952425301075 1
vt 0.0476190485060215 0
vt 0.0476190485060215 1
vt 0.071428574621677399 0
vt 0.071428574621677399 1
vt 0.095238097012042999 0
vt 0.095238097012042999 1
vt 0.1190476194024086 0
vt 0.1190476194024086 1
vt 0.1428571492433548 0
vt 0.1428571492433548 1
vt 0.1666666716337204 0
vt 0.1666666716337204 1
vt 0.190476194024086 0
vt 0.190476194024086 1
vt 0.2142857164144516 0
vt 0.2142857164144516 1
vt 0.2380952388048172 0
vt 0.2380952388048172 1
vt 0.26190477609634399 0
vt 0.26190477609634399 1
vt 0.28571429848670959 0
vt 0.28571429848670959 1
vt 0.3095238208770752 0
vt 0.3095238208770752 1
vt 0.3333333432674408 0
vt 0.3333333432674408 1
vt 0.3571428656578064 0
vt 0.3571428656578064 1
vt 0.380952388048172 0
vt 0.380952388048172 1
vt 0.4047619104385376 0
vt 0.4047619104385376 1
vt 0.4285714328289032 0
vt 0.4285714328289032 1
vt 0.4523809552192688 0
vt 0.4523809552192688 1
vt 0.4761904776096344 0
vt 0.4761904776096344 1
vt 0.5 0
vt 0.5 1
vt 0.52380955219268799 0
vt 0.52380955219268799 1
vt 0.5476190447807312 0
vt 0.5476190447807312 1
vt 0.57142859697341919 0
vt 0.57142859697341919 1
vt 0.5952380895614624 0
vt 0.5952380895614624 1
vt 0.61904764175415039 0
vt 0.61904764175415039 1
vt 0.6428571343421936 0
vt 0.6428571343421936 1
vt 0.66666668653488159 0
vt 0.66666668653488159 1
vt 0.6904761791229248 0
vt 0.6904761791229248 1
vt 0.71428573131561279 0
vt 0.71428573131561279 1
vt 0.73809522390365601 0
vt 0.73809522390365601 1
vt 0.76190477609634399 0
vt 0.76190477609634399 1
vt 0.78571426868438721 0
vt 0.78571426868438721 1
vt 0.8095238208770752 0
vt 0.8095238208770752 1
vt 0.83333331346511841 0
vt 0.83333331346511841 1
vt 0.8571428656578064 0
vt 0.8571428656578064 1
vt 0.88095235824584961 0
vt 0.88095235824584961 1
vt 0.9047619104385376 0
vt 0.9047619104385376 1
vt 0.92857140302658081 0
vt 0.92857140302658081 1
vt 0.9523809552192688 0
vt 0.9523809552192688 1
vt 0.97619044780731201 0
vt 0.97619044780731201 1
vt 1 0
vt 1 1
vn 1 0 0
vn 1 0 0
vn 0.9888308048248291 0.14904226362705231 0
vn 0.9888308048248291 0.14904226362705231 0
vn 0.95557278394699097 0.29475516080856323 0
vn 0.95557278394699097 0.29475516080856323 0
vn 0.90096884965896606 0.43388372659683228 0
vn 0.90096884965896606 0.43388372659683228 0
vn 0.82623875141143799 0.5633201003074646 0
vn 0.82623875141143799 0.5633201003074646 0
vn 0.73305189609527588 0.68017274141311646 0
vn 0.73305189609527588 0.68017274141311646 0
vn 0.62348979711532593 0.78183150291442871 0
vn 0.62348979711532593 0.78183150291442871 0
vn 0.5 0.86602538824081421 0
vn 0.5 0.86602538824081421 0
vn 0.36534103751182556 0.93087375164031982 0
vn 0.36534103751182556 0.93087375164031982 0
vn 0.22252093255519867 0.97492790222167969 0
vn 0.22252093255519867 0.97492790222167969 0
vn 0.074730090796947479 0.99720382690429688 0
vn 0.074730090796947479 0.99720382690429688 0
vn -0.074730090796947479 0.99720382690429688 0
vn -0.074730090796947479 0.99720382690429688 0
vn -0.22252093255519867 0.97492790222167969 0
vn -0.22252093255519867 0.97492790222167969 0
vn -0.36534103751182556 0.93087375164031982 0
vn -0.36534103751182556 0.93087375164031982 0
vn -0.5 0.86602538824081421 0
vn -0.5 0.86602538824081421 0
vn -0.62348979711532593 0.78183150291442871 0
vn -0.62348979711532593 0.78183150291442871 0
vn -0.73305189609527588 0.68017274141311646 0
vn -0.73305189609527588 0.68017274141311646 0
vn -0.82623875141143799 0.5633201003074646 0
vn -0.82623875141143799 0.5633201003074646 0
vn -0.90096884965896606 0.43388372659683228 0
vn -0.90096884965896606 0.43388372659683228 0
vn -0.95557278394699097 0.29475516080856323 0
vn -0.95557278394699097 0.29475516080856323 0
vn -0.9888308048248291 0.14904226362705231 0
vn -0.9888308048248291 0.14904226362705231 0
vn -1 0 0
vn -1 0 0
vn -0.9888308048248291 -0.14904226362705231 0
vn -0.9888308048248291 -0.14904226362705231 0
vn -0.95557278394699097 -0.29475516080856323 0
vn -0.95557278394699097 -0.29475516080856323 0
vn -0.90096884965896606 -0.43388372659683228 0
vn -0.90096884965896606 -0.43388372659683228 0
vn -0.82623875141143799 -0.5633201003074646 0
vn -0.82623875141143799 -0.5633201003074646 0
vn -0.73305189609527588 -0.68017274141311646 0
vn -0.73305189609527588 -0.68017274141311646 0
vn -0.62348979711532593 -0.78183150291442871 0
vn -0.62348979711532593 -0.78183150291442871 0
vn -0.5 -0.86602538824081421 0
vn -0.5 -0.86602538824081421 0
vn -0.36534103751182556 -0.93087375164031982 0
vn -0.36534103751182556 -0.93087375164031982 0
vn -0.22252093255519867 -0.97492790222167969 0
vn -0.22252093255519867 -0.97492790222167969 0
vn -0.074730090796947479 -0.99720382690429688 0
vn -0.074730090796947479 -0.99720382690429688 0
vn 0.074730090796947479 -0.99720382690429688 0
vn 0.074730090796947479 -0.99720382690429688 0
vn 0.22252093255519867 -0.97492790222167969 0
vn 0.22252093255519867 -0.97492790222167969 0
vn 0.36534103751182556 -0.93087375164031982 0
vn 0.36534103751182556 -0.93087375164031982 0
vn 0.5 -0.86602538824081421 0
vn 0.5 -0.86602538824081421 0
vn 0.62348979711532593 -0.78183150291442871 0
vn 0.62348979711532593 -0.78183150291442871 0
vn 0.73305189609527588 -0.68017274141311646 0
vn 0.73305189609527588 -0.68017274141311646 0
vn 0.82623875141143799 -0.5633201003074646 0
vn 0.82623875141143799 -0.5633201003074646 0
vn 0.90096884965896606 -0.43388372659683228 0
vn 0.90096884965896606 -0.43388372659683228 0
vn 0.95557278394699097 -0.29475516080856323 0
vn 0.95557278394699097 -0.29475516080856323 0
vn 0.9888308048248291 -0.14904226362705231 0
vn 0.9888308048248291 -0.14904226362705231 0
vn 1 0 0
vn 1 0 0
f 1/1/1 3/3/3 4/4/4
f 3/3/3 5/5/5 6/6/6
f 5/5/5 7/7/7 8/8/8
f 7/7/7 9/9/9 10/10/10
f 9/9/9 11/11/11 12/12/12
f 11/11/11 13/13/13 14/14/14
f 13/13/13 15/15/15 16/16/16
f 15/15/15 17/17/17 18/18/18
f 17/17/17 19/19/19 20/20/20
f 19/19/19 21/21/21 22/22/22
f 21/21/21 23/23/23 24/24/24
f 23/23/23 25/25/25 26/26/26
f 25/25/25 27/27/27 28/28/28
f 27/27/27 29/29/29 30/30/30
f 29/29/29 31/31/31 32/32/32
f 31/31/31 33/33/33 34/34/34
f 33/33/33 35/35/35 36/36/36
f 35/35/35 37/37/37 38/38/38
f 37/37/37 39/39/39 40/40/40
f 39/39/39 41/41/41 42/42/42
f 41/41/41 43/43/43 44/44/44
f 43/43/43 45/45/45 46/46/46
f 45/45/45 47/47/47 48/48/48
f 47/47/47 49/49/49 50/50/50
f 49/49/49 51/51/51 52/52/52
f 51/51/51 53/53/53 54/54/54
f 53/53/53 55/55/55 56/56/56
f 55/55/55 57/57/57 58/58/58
f 57/57/57 59/59/59 60/60/60
f 59/59/59 61/61/61 62/62/62
f 61/61/61 63/63/63 64/64/64
f 63/63/63 65/65/65 66/66/66
f 65/65/65 67/67/67 68/68/68
f 67/67/67 69/69/69 70/70/70
f 69/69/69 71/71/71 72/72/72
f 71/71/71 73/73/73 74/74/74
f 73/73/73 75/75/75 76/76/76
f 75/75/75 77/77/77 78/78/78
f 77/77/77 79/79/79 80/80/80
f 79/79/79 81/81/81 82/82/82
f 81/81/81 83/83/83 84/84/84
f 83/83/83 85/85/85 86/86/86
f 1/1/1 4/4/4 2/2/2
f 3/3/3 6/6/6 4/4/4
f 5/5/5 8/8/8 6/6/6
f 7/7/7 10/10/10 8/8/8
f 9/9/9 12/12/12 10/10/10
f 11/11/11 14/14/14 12/12/12
f 13/13/13 16/16/16 14/14/14
f 15/15/15 18/18/18 16/16/16
f 17/17/17 20/20/20 18/18/18
f 19/19/19 22/22/22 20/20/20
f 21/21/21 24/24/24 22/22/22
f 23/23/23 26/26/26 24/24/24
f 25/25/25 28/28/28 26/26/26
f 27/27/27 30/30/30 28/28/28
f 29/29/29 32/32/32 30/30/30
f 31/31/31 34/34/34 32/32/32
f 33/33/33 36/36/36 34/34/34
f 35/35/35 38/38/38 36/36/36
f 37/37/37 40/40/40 38/38/38
f 39/39/39 42/42/42 40/40/40
f 41/41/41 44/44/44 42/42/42
f 43/43/43 46/46/46 44/44/44
f 45/45/45 48/48/48 46/46/46
f 47/47/47 50/50/50 48/48/48
f 49/49/49 52/52/52 50/50/50
f 51/51/51 54/54/54 52/52/52
f 53/53/53 56/56/56 54/54/54
f 55/55/55 58/58/58 56/56/56
f 57/57/57 60/60/60 58/58/58
f 59/59/59 62/62/62 60/60/60
f 61/61/61 64/64/64 62/62/62
f 63/63/63 66/66/66 64/64/64
f 65/65/65 68/68/68 66/66/66
f 67/67/67 70/70/70 68/68/68
f 69/69/69 72/72/72 70/70/70
f 71/71/71 74/74/74 72/72/72
f 73/73/73 76/76/76 74/74/74
f 75/75/75 78/78/78 76/76/76
f 77/77/77 80/80/80 78/78/78
f 79/79/79 82/82/82 80/80/80
f 81/81/81 84/84/84 82/82/82
f 83/83/83 86/86/86 84/84/84
